<svg width="788" height="29" viewBox="0 0 788 29" fill="none" xmlns="http://www.w3.org/2000/svg">
<path d="M487.022 0.0257164V29.0022H472.382V0.333517C473.199 -0.011368 474.641 0.182707 475.728 0.146859C476.217 0.130789 476.682 0.030661 477.211 0.0195356C480.468 -0.0459801 483.765 0.0788707 487.022 0.0244802V0.0257164Z" fill="#152348"/>
<path d="M788 0.149414V29.0011H778.322V0.3336L778.695 0.149414H788Z" fill="#152348"/>
<path d="M503.149 29.0011H493.475V0.149414H502.777L503.149 0.3336V29.0011Z" fill="#152348"/>
<path d="M748.052 0.149414H739.616V29.0023H748.052V0.149414Z" fill="#152348"/>
<path d="M567.414 29.0011H559.971V0.457215C559.971 0.416422 560.298 0.270556 560.219 0.149414H567.044L567.416 0.334836V29.0023L567.414 29.0011Z" fill="#152348"/>
<path d="M578.334 29.0011H570.891V0.457215C570.891 0.434964 571.467 0.149414 571.511 0.149414H577.964L578.336 0.334836V29.0023L578.334 29.0011Z" fill="#152348"/>
<path d="M674.11 0.149414V29.0011H666.915V0.3336L667.287 0.149414H674.11Z" fill="#152348"/>
<path d="M534.913 0.149414H528.212V29.0023H534.913V0.149414Z" fill="#152348"/>
<path d="M596.447 29.0011H589.746V0.3336L590.118 0.149414H596.074L596.447 0.3336V29.0011Z" fill="#152348"/>
<path d="M436.901 29.0011H430.448V0.3336L430.821 0.149414H436.528L436.901 0.3336V29.0011Z" fill="#152348"/>
<path d="M711.577 0.149674C711.498 0.270816 711.825 0.416681 711.825 0.457474V29.0013H705.373V0.33386L705.745 0.148438H711.577V0.149674Z" fill="#152348"/>
<path d="M469.653 29.0011H463.449V0.3336L463.822 0.149414H469.281L469.653 0.3336V29.0011Z" fill="#152348"/>
<path d="M723.983 29.0011H717.779V0.3336L718.152 0.149414H723.611L723.983 0.3336V29.0011Z" fill="#152348"/>
<path d="M633.169 29.0011H627.213V0.149414H632.796L633.169 0.3336V29.0011Z" fill="#152348"/>
<path d="M662.944 29.0011H656.99V0.149414H662.574L662.944 0.3336V29.0011Z" fill="#152348"/>
<path d="M426.727 0.149414V29.0011H421.268V0.3336L421.64 0.149414H426.727Z" fill="#152348"/>
<path d="M682.794 0.149414H677.583V29.0023H682.794V0.149414Z" fill="#152348"/>
<path d="M703.886 29.0011H698.675V0.149414H703.513L703.886 0.3336V29.0011Z" fill="#152348"/>
<path d="M765.917 29.0011H760.706V0.3336L761.078 0.149414H765.545L765.917 0.3336V29.0011Z" fill="#152348"/>
<path d="M735.895 29.0011H730.684V0.3336L731.056 0.149414H735.522L735.895 0.3336V29.0011Z" fill="#152348"/>
<path d="M587.266 29.0011H582.055V0.3336L582.427 0.149414H586.893L587.266 0.3336V29.0011Z" fill="#152348"/>
<path d="M773.856 0.149414H768.894V29.0023H773.856V0.149414Z" fill="#152348"/>
<path d="M524.986 29.0011H520.023V0.3336L520.396 0.149414H524.614L524.986 0.3336V29.0011Z" fill="#152348"/>
<path d="M445.337 29.0011H440.374V0.3336L440.746 0.149414H444.964L445.337 0.3336V29.0011Z" fill="#152348"/>
<path d="M624.237 29.0011H619.274V0.3336L619.647 0.149414H623.865L624.237 0.3336V29.0011Z" fill="#152348"/>
<path d="M756.24 29.0011H751.525V0.3336L751.898 0.149414H755.867L756.24 0.3336V29.0011Z" fill="#152348"/>
<path d="M612.573 29.0011H608.106V0.149414H612.203L612.573 0.3336V29.0011Z" fill="#152348"/>
<path d="M604.137 29.0011H599.671V0.3336L600.043 0.149414H603.765L604.137 0.3336V29.0011Z" fill="#152348"/>
<path d="M510.595 29.0011H506.377V0.149414H510.223L510.595 0.3336V29.0011Z" fill="#152348"/>
<path d="M399.433 0.149414V29.0011H395.215V0.3336L395.587 0.149414H399.433Z" fill="#152348"/>
<path d="M407.372 29.0013H403.154V0.333781L403.566 0.168137C404.753 0.201513 406.429 -0.0370629 407.372 0.333781V29.0013Z" fill="#152348"/>
<path d="M551.039 29.0011H546.821V0.457215C546.821 0.416422 547.149 0.270556 547.07 0.149414H550.667L551.039 0.334836V29.0023V29.0011Z" fill="#152348"/>
<path d="M692.72 29.0011H688.75V0.149414H692.347L692.72 0.3336V29.0011Z" fill="#152348"/>
<path d="M556.498 29.0011H552.528V0.333664C553.425 0.0308077 555.632 0.0345161 556.498 0.333664V29.0011Z" fill="#152348"/>
<path d="M646.319 29.0012H642.598V0.333713C643.424 0.0320933 645.522 0.0358017 646.319 0.333713V29.0012Z" fill="#152348"/>
<path d="M460.472 29.0016H456.751C457.116 19.9889 456.269 10.9415 456.738 1.93124C456.751 1.70132 456.887 1.49859 456.907 1.30081C456.942 0.953449 456.416 0.466407 457.165 0.145009C458.221 0.224122 459.663 -0.0367049 460.475 0.335375V29.0029L460.472 29.0016Z" fill="#152348"/>
<path d="M652.275 29.0012H648.802V0.333739C649.564 0.0321197 651.543 0.0370642 652.275 0.333739V29.0012Z" fill="#152348"/>
<path d="M638.628 29.0014H635.651V0.149785C636.61 0.214065 637.908 -0.0269836 638.628 0.335207V29.0027V29.0014Z" fill="#152348"/>
<path d="M412.335 0.149414H409.606V29.0023H412.335V0.149414Z" fill="#152348"/>
<path d="M543.099 29.0012H540.371V0.333755L540.783 0.168112C541.096 0.133499 541.416 0.140916 541.737 0.140916C542.245 0.140916 542.787 0.100123 543.102 0.333755V29.0012H543.099Z" fill="#152348"/>
<path d="M517.044 29.0012H514.315V0.333755L514.728 0.168112C515.04 0.133499 515.361 0.140916 515.681 0.140916C516.19 0.140916 516.731 0.100123 517.046 0.333755V29.0012H517.044Z" fill="#152348"/>
<path d="M452.037 0.149808V29.0027H449.557V0.333994C450.148 -0.00347391 451.22 0.19431 452.037 0.148572V0.149808Z" fill="#152348"/>
<path d="M448.065 29.0008H446.327V0.149165C446.93 0.157818 447.663 0.0552175 448.065 0.334587V29.0021V29.0008Z" fill="#152348"/>
<path d="M91.807 0.0257164V29.0022H77.167V0.333517C77.9838 -0.011368 79.4262 0.182707 80.5136 0.146859C81.0026 0.130789 81.4669 0.030661 81.9957 0.0195356C85.2529 -0.0459801 88.5498 0.0788707 91.807 0.0244802V0.0257164Z" fill="#152348"/>
<path d="M392.786 0.149414V29.0011H383.108V0.3336L383.481 0.149414H392.786Z" fill="#152348"/>
<path d="M107.935 29.0011H98.2598V0.149414H107.562L107.935 0.3336V29.0011Z" fill="#152348"/>
<path d="M352.837 0.149414H344.401V29.0023H352.837V0.149414Z" fill="#152348"/>
<path d="M172.2 29.0011H164.757V0.457215C164.757 0.416422 165.085 0.270556 165.005 0.149414H171.83L172.202 0.334836V29.0023L172.2 29.0011Z" fill="#152348"/>
<path d="M183.119 29.0011H175.676V0.457215C175.676 0.434964 176.252 0.149414 176.296 0.149414H182.749L183.121 0.334836V29.0023L183.119 29.0011Z" fill="#152348"/>
<path d="M278.896 0.149414V29.0011H271.701V0.3336L272.074 0.149414H278.896Z" fill="#152348"/>
<path d="M139.698 0.149414H132.997V29.0023H139.698V0.149414Z" fill="#152348"/>
<path d="M201.232 29.0011H194.531V0.3336L194.904 0.149414H200.859L201.232 0.3336V29.0011Z" fill="#152348"/>
<path d="M41.6857 29.0011H35.2334V0.3336L35.6058 0.149414H41.3133L41.6857 0.3336V29.0011Z" fill="#152348"/>
<path d="M316.362 0.149674C316.283 0.270816 316.611 0.416681 316.611 0.457474V29.0013H310.158V0.33386L310.531 0.148438H316.362V0.149674Z" fill="#152348"/>
<path d="M74.4384 29.0011H68.2344V0.3336L68.6068 0.149414H74.066L74.4384 0.3336V29.0011Z" fill="#152348"/>
<path d="M328.769 29.0011H322.564V0.3336L322.937 0.149414H328.396L328.769 0.3336V29.0011Z" fill="#152348"/>
<path d="M237.954 29.0011H231.998V0.149414H237.581L237.954 0.3336V29.0011Z" fill="#152348"/>
<path d="M267.729 29.0011H261.775V0.149414H267.359L267.729 0.3336V29.0011Z" fill="#152348"/>
<path d="M31.512 0.149414V29.0011H26.0527V0.3336L26.4251 0.149414H31.512Z" fill="#152348"/>
<path d="M287.579 0.149414H282.368V29.0023H287.579V0.149414Z" fill="#152348"/>
<path d="M308.671 29.0011H303.46V0.149414H308.299L308.671 0.3336V29.0011Z" fill="#152348"/>
<path d="M370.702 29.0011H365.491V0.3336L365.864 0.149414H370.33L370.702 0.3336V29.0011Z" fill="#152348"/>
<path d="M340.68 29.0011H335.469V0.3336L335.841 0.149414H340.307L340.68 0.3336V29.0011Z" fill="#152348"/>
<path d="M192.051 29.0011H186.84V0.3336L187.212 0.149414H191.678L192.051 0.3336V29.0011Z" fill="#152348"/>
<path d="M378.641 0.149414H373.679V29.0023H378.641V0.149414Z" fill="#152348"/>
<path d="M129.771 29.0011H124.809V0.3336L125.181 0.149414H129.399L129.771 0.3336V29.0011Z" fill="#152348"/>
<path d="M50.1219 29.0011H45.1592V0.3336L45.5316 0.149414H49.7495L50.1219 0.3336V29.0011Z" fill="#152348"/>
<path d="M229.021 29.0011H224.059V0.3336L224.431 0.149414H228.649L229.021 0.3336V29.0011Z" fill="#152348"/>
<path d="M361.025 29.0011H356.311V0.3336L356.683 0.149414H360.653L361.025 0.3336V29.0011Z" fill="#152348"/>
<path d="M217.358 29.0011H212.892V0.149414H216.988L217.358 0.3336V29.0011Z" fill="#152348"/>
<path d="M208.922 29.0011H204.456V0.3336L204.828 0.149414H208.55L208.922 0.3336V29.0011Z" fill="#152348"/>
<path d="M115.38 29.0011H111.162V0.149414H115.008L115.38 0.3336V29.0011Z" fill="#152348"/>
<path d="M4.21797 0.149414V29.0011H0V0.3336L0.372393 0.149414H4.21797Z" fill="#152348"/>
<path d="M12.1574 29.0013H7.93945V0.333781L8.35157 0.168137C9.53826 0.201513 11.214 -0.0370629 12.1574 0.333781V29.0013Z" fill="#152348"/>
<path d="M155.824 29.0011H151.606V0.457215C151.606 0.416422 151.934 0.270556 151.855 0.149414H155.452L155.824 0.334836V29.0023V29.0011Z" fill="#152348"/>
<path d="M297.504 29.0011H293.534V0.149414H297.131L297.504 0.3336V29.0011Z" fill="#152348"/>
<path d="M161.283 29.0011H157.313V0.333664C158.21 0.0308077 160.417 0.0345161 161.283 0.333664V29.0011Z" fill="#152348"/>
<path d="M251.105 29.0012H247.384V0.333713C248.211 0.0320933 250.308 0.0358017 251.105 0.333713V29.0012Z" fill="#152348"/>
<path d="M65.2575 29.0016H61.536C61.901 19.9889 61.0544 10.9415 61.5236 1.93124C61.536 1.70132 61.6726 1.49859 61.6924 1.30081C61.7272 0.953449 61.2009 0.466407 61.9506 0.145009C63.0057 0.224122 64.4482 -0.0367049 65.26 0.335375V29.0029L65.2575 29.0016Z" fill="#152348"/>
<path d="M257.06 29.0012H253.587V0.333739C254.349 0.0321197 256.328 0.0370642 257.06 0.333739V29.0012Z" fill="#152348"/>
<path d="M243.413 29.0014H240.437V0.149785C241.395 0.214065 242.693 -0.0269836 243.413 0.335207V29.0027V29.0014Z" fill="#152348"/>
<path d="M17.12 0.149414H14.3916V29.0023H17.12V0.149414Z" fill="#152348"/>
<path d="M147.885 29.0012H145.156V0.333755L145.568 0.168112C145.881 0.133499 146.201 0.140916 146.522 0.140916C147.031 0.140916 147.572 0.100123 147.887 0.333755V29.0012H147.885Z" fill="#152348"/>
<path d="M121.829 29.0012H119.101V0.333755L119.513 0.168112C119.826 0.133499 120.146 0.140916 120.466 0.140916C120.975 0.140916 121.516 0.100123 121.831 0.333755V29.0012H121.829Z" fill="#152348"/>
<path d="M56.8219 0.149808V29.0027H54.3418V0.333994C54.9327 -0.00347391 56.0052 0.19431 56.8219 0.148572V0.149808Z" fill="#152348"/>
<path d="M52.8501 29.0008H51.1123V0.149165C51.7156 0.157818 52.448 0.0552175 52.8501 0.334587V29.0021V29.0008Z" fill="#152348"/>
</svg>
