<svg width="36" height="38" viewBox="0 0 36 38" fill="none" xmlns="http://www.w3.org/2000/svg">
<path d="M26.1848 37.9846C26.2918 37.7399 26.2307 36.3786 25.9401 36.2104L20.5563 32.9985L20.4951 23.7757L35.1629 27.7982L34.9334 24.6475L20.4798 14.1552L20.5257 3.35704C20.5257 1.27694 19.3174 -0.114888 17.3291 0.00747108C15.7078 0.0992402 14.6219 1.49107 14.6219 3.34175L14.6678 14.1858L0.290602 24.6169L0 27.7982L14.6525 23.791L14.6525 33.0138L8.82513 36.4704V37.9846L26.1542 37.9846H26.1848Z" fill="#152348"/>
<path d="M26.1845 37.9844L8.8707 37.9844L8.8554 36.4855L14.6674 33.0289L14.6674 23.8061L0.0302734 27.8134L0.320876 24.632L14.698 14.2009L14.6521 3.35689C14.6521 1.5215 15.7381 0.129672 17.3593 0.0226078C19.3477 -0.099751 20.556 1.29208 20.556 3.37218L20.5101 14.1703L34.9637 24.6626L35.1931 27.8134L20.5254 23.7908L20.5866 33.0136L25.9703 36.2255C26.2456 36.3938 26.3221 37.755 26.2151 37.9997L26.1845 37.9844Z" fill="#152348"/>
</svg>
