<svg width="24" height="24" viewBox="0 0 24 24" fill="none" xmlns="http://www.w3.org/2000/svg">
<circle cx="12.5" cy="10.5" r="5.5" fill="white"/>
<path fill-rule="evenodd" clip-rule="evenodd" d="M11.4982 22.8398L11.5745 22.8832L11.6051 22.9006C11.7262 22.9658 11.8618 23 11.9995 23C12.1372 23 12.2727 22.9658 12.3938 22.9006L12.4244 22.8843L12.5018 22.8398C12.9285 22.5878 13.3448 22.3188 13.7498 22.0336C14.7983 21.2964 15.7779 20.4665 16.6767 19.5542C18.7975 17.392 21 14.1434 21 9.96364C21 7.58633 20.0518 5.3064 18.364 3.62539C16.6761 1.94438 14.3869 1 12 1C9.61305 1 7.32387 1.94438 5.63604 3.62539C3.94821 5.3064 3 7.58633 3 9.96364C3 14.1423 5.20364 17.392 7.32327 19.5542C8.22179 20.4665 9.20103 21.2963 10.2491 22.0336C10.6544 22.3189 11.0711 22.5878 11.4982 22.8398ZM12 13.2231C12.868 13.2231 13.7004 12.8797 14.3142 12.2685C14.9279 11.6572 15.2727 10.8281 15.2727 9.96364C15.2727 9.09916 14.9279 8.27009 14.3142 7.65882C13.7004 7.04754 12.868 6.70413 12 6.70413C11.132 6.70413 10.2996 7.04754 9.68583 7.65882C9.07208 8.27009 8.72727 9.09916 8.72727 9.96364C8.72727 10.8281 9.07208 11.6572 9.68583 12.2685C10.2996 12.8797 11.132 13.2231 12 13.2231Z" fill="#CEA66D"/>
</svg>
